<?xml version="1.0" encoding="UTF-8"?>
<svg id="Layer_2" data-name="Layer 2" xmlns="http://www.w3.org/2000/svg" viewBox="0 0 1920 1980.29">
  <defs>
    <style>
      .cls-1 {
        fill: #481204;
      }
    </style>
  </defs>
  <g id="Layer_1-2" data-name="Layer 1">
    <path class="cls-1" d="M1891.56,1102.25c121.06-244.26-155.15-644.35-623.82-899.81C793.15-56.23,300.94-68.66,168.29,174.66c-64.01,117.47-32.57,273.01,70.55,431.66,.13,.23,.29,.42,.42,.65,36.52,56.24,82.14,112.84,135.73,168.27,1.2,1.29,2.43,2.56,3.69,3.85,107.53,110.57,246.65,216.22,408.7,304.55,309.14,168.53,625.8,232.57,845.68,189.44,1.3-.26,2.56-.52,3.82-.78-30.08,32.06-80.43,56.24-145.86,71.98-14.67,3.59-30.11,6.67-46.24,9.42-143.01,23.77-340.87,13.47-552.1-36-151.43-35.52-287.61-85.93-395.95-142.82-98.53-51.8-174-108.98-216.8-165.22-32.18-42.38-45.85-84.18-36.78-122.68,6.22-26.78,23.02-50.12,48.7-69.81-55.56-56.92-98.1-109.02-136.44-166.49-77.9,50.41-130.29,115.46-148.45,192.94-20.3,86.61,4.6,178.31,65.27,266.92,24.44,35.81,54.78,71.1,90.27,105.36,17.77,17.19,36.85,34.03,57.15,50.61,35.81,29.27,75.54,57.57,118.6,84.44,138.67,86.64,312.61,158.94,507.13,204.47,292.63,68.51,570.3,62.26,770.07-3.3,7.53-2.47,14.92-5.04,22.22-7.67-82.36,116.04-370.08,198.42-710.99,193.3-338.04-5.11-562.61-107.32-702.82-211.55-36.51-27.14-71.43-56-116.17-47.74h0c-86.55,15.98-125.09,119.27-69.02,187.11,148.35,179.49,491.33,308.48,892.61,314.53,540.39,8.06,981.82-210,986.03-487.16,.65-45.72-10.62-90.18-32.31-132.57,12.51-22.15,21.86-45.61,27.68-70.42,14.24-61.03,6.12-124.52-21.11-187.69Zm-315.55-60.77c-24.96,6.6-53.78,10.07-85.8,10.49-149.91,1.94-370.21-62.94-594.03-184.94-55.95-30.5-108.76-62.71-157.78-95.93-11.97-8.11-23.68-16.27-35.18-24.5,80.94,1.01,167.5,7.87,256.93,21.22,114.85,17.19,216.76,42.73,306.33,74.05,95.14,33.26,166.7,66.97,234.55,109.93,13.76,8.72,31,17.96,48.8,18.05,22.05,.11,31.5-10.69,36.05-23.14,6.86-18.64,3.4-54.55-24.7-99.54-58.27-93.29-217.07-215.25-559.81-292.63-226.43-51.12-430.41-37.67-528.78-13.91-86.87-102.73-122.94-197.58-88.15-261.41,71.72-131.52,417.03-81.59,771.3,111.54,316.91,172.73,533.65,401.52,524.62,541.97-.97,15.09-4.57,29.17-10.91,42.06-.62,1.26-1.26,2.52-1.94,3.79-16.74,30.69-48.34,51.48-91.5,62.91Z"/>
  </g>
</svg>