<?xml version="1.0" encoding="UTF-8"?>
<svg id="Layer_2" data-name="Layer 2" xmlns="http://www.w3.org/2000/svg" viewBox="0 0 1920 296.2">
  <defs>
    <style>
      .cls-1 {
        fill: #fcf8e6;
      }
    </style>
  </defs>
  <g id="Layer_1-2" data-name="Layer 1">
    <g>
      <path class="cls-1" d="M553.58,79.23c-16.53-10.29-35.49-15.44-56.88-15.44s-40.63,5.08-56.88,15.24-28.72,24.04-37.38,41.65c-8.67,17.61-13,37.25-13,58.91s4.33,41.38,13,59.12c8.67,17.74,21.06,31.76,37.18,42.05,16.11,10.29,35.15,15.44,57.09,15.44s40.63-5.15,56.88-15.44c16.25-10.29,28.78-24.24,37.58-41.85,8.8-17.6,13.21-37.38,13.21-59.32s-4.34-41.24-13-58.71c-8.67-17.47-21.27-31.35-37.79-41.65Zm-8.13,141.6c-4.34,12.06-10.7,21.47-19.1,28.24-8.4,6.77-18.29,10.16-29.66,10.16s-21.2-3.38-29.46-10.16c-8.27-6.77-14.49-16.11-18.69-28.03-4.2-11.92-6.3-25.73-6.3-41.45s2.09-28.71,6.3-40.63c4.2-11.92,10.42-21.26,18.69-28.04,8.26-6.77,18.08-10.16,29.46-10.16s21.19,3.39,29.46,10.16c8.26,6.77,14.63,16.12,19.1,28.04,4.47,11.92,6.7,25.46,6.7,40.63s-2.17,29.19-6.5,41.24Z"/>
      <path class="cls-1" d="M831.9,140.18c0-14.63-2.58-27.69-7.72-39.21-5.15-11.51-12.94-20.58-23.36-27.22-10.43-6.63-23.5-9.95-39.21-9.95-11.38,0-22.28,2.71-32.71,8.13-10.43,5.42-19.71,12.87-27.83,22.35-8.13,9.49-14.63,20.18-19.5,32.1v-56.88h-49.16v221.03h49.16v-99.95c0-16.52,3.05-31.49,9.14-44.9,6.1-13.41,14.08-23.83,23.97-31.29,9.88-7.45,20.25-11.17,31.08-11.17,12.19,0,21.33,3.73,27.43,11.17,6.1,7.45,9.14,18.63,9.14,33.52v142.61h52.01c-1.62-15.98-2.44-33.58-2.44-52.82v-97.51Z"/>
      <path class="cls-1" d="M1038.51,78.22c-14.22-9.61-30.82-14.42-49.77-14.42-14.63,0-28.04,4.27-40.22,12.8-12.19,8.53-21.94,19.98-29.26,34.33V0h-49.16V290.51h49.16v-40.22c7.31,14.09,17.06,25.26,29.26,33.52,12.19,8.26,25.46,12.39,39.82,12.39,18.69,0,35.28-4.87,49.77-14.63,14.49-9.75,25.73-23.43,33.72-41.04,7.99-17.6,11.99-37.79,11.99-60.54s-4-43.34-11.99-60.95c-7.99-17.6-19.1-31.22-33.32-40.83Zm-14.22,141.4c-4.74,11.52-11.31,20.45-19.71,26.82-8.4,6.37-18.02,9.55-28.85,9.55s-19.71-2.91-28.24-8.73c-8.53-5.82-15.38-13.75-20.52-23.77-5.15-10.02-7.72-21.13-7.72-33.32v-19.1c0-11.92,2.5-23.02,7.52-33.32,5.01-10.29,11.78-18.49,20.32-24.58,8.53-6.1,18.08-9.14,28.64-9.14s20.45,3.12,28.85,9.35c8.39,6.23,14.96,15.1,19.71,26.61,4.74,11.52,7.11,24.85,7.11,40.02s-2.37,28.11-7.11,39.62Z"/>
      <path class="cls-1" d="M1265.02,79.23c-16.53-10.29-35.49-15.44-56.88-15.44s-40.63,5.08-56.88,15.24c-16.25,10.16-28.72,24.04-37.38,41.65-8.67,17.61-13,37.25-13,58.91s4.33,41.38,13,59.12c8.67,17.74,21.06,31.76,37.18,42.05,16.11,10.29,35.15,15.44,57.09,15.44s40.63-5.15,56.88-15.44c16.25-10.29,28.78-24.24,37.58-41.85,8.8-17.6,13.21-37.38,13.21-59.32s-4.34-41.24-13-58.71c-8.67-17.47-21.27-31.35-37.79-41.65Zm-8.13,141.6c-4.34,12.06-10.7,21.47-19.1,28.24-8.4,6.77-18.29,10.16-29.66,10.16s-21.2-3.38-29.46-10.16c-8.27-6.77-14.49-16.11-18.69-28.03-4.2-11.92-6.3-25.73-6.3-41.45s2.09-28.71,6.3-40.63c4.2-11.92,10.42-21.26,18.69-28.04,8.26-6.77,18.08-10.16,29.46-10.16s21.19,3.39,29.46,10.16c8.26,6.77,14.63,16.12,19.1,28.04,4.47,11.92,6.7,25.46,6.7,40.63s-2.17,29.19-6.5,41.24Z"/>
      <path class="cls-1" d="M1532.78,262.07c-3.52,0-6.23-.95-8.13-2.84-1.9-1.89-2.98-5.14-3.25-9.75v-106.86c0-16.25-2.78-30.2-8.33-41.85-5.56-11.64-14.42-20.72-26.61-27.22-12.19-6.5-27.77-9.75-46.73-9.75-21.4,0-41.51,4.88-60.34,14.63-18.83,9.75-35.01,24.11-48.55,43.07l35.35,27.22c8.13-15.71,18.14-27.69,30.07-35.96,11.92-8.26,24.79-12.39,38.6-12.39,12.46,0,21.74,3.93,27.83,11.78,6.1,7.86,9.14,18.69,9.14,32.5v1.48c-28.34,2.66-52.6,7.65-72.73,14.98-21.94,7.99-38.67,18.35-50.18,31.08-11.52,12.74-17.27,27.63-17.27,44.69s5.89,32.24,17.68,43.07c11.78,10.83,27.56,16.25,47.34,16.25,18.42,0,34.06-4.87,46.93-14.63,12.36-9.37,21.75-21.58,28.24-36.57v2.85c0,15.71,3.92,27.7,11.78,35.96,7.85,8.26,18.55,12.39,32.1,12.39,4.87,0,9.55-.48,14.02-1.42,4.47-.95,8.73-2.38,12.8-4.27l6.1-32.51c-3.25,1.36-6.03,2.38-8.33,3.05-2.3,.68-4.81,1.02-7.52,1.02Zm-60.95-73.14c0,13.55-2.84,25.46-8.53,35.76-5.69,10.3-13.07,18.08-22.14,23.36-9.08,5.28-18.89,7.92-29.46,7.92-8.94,0-15.92-2.3-20.92-6.91-5.02-4.6-7.52-11.1-7.52-19.5,0-10.29,3.99-18.89,11.99-25.8,7.99-6.91,19.1-12.25,33.32-16.05,12.33-3.29,26.76-5.76,43.27-7.42v8.64Z"/>
      <path class="cls-1" d="M1694.49,66.84c-4.87-2.03-10.43-3.05-16.66-3.05-11.38,0-22.42,5.35-33.11,16.05-10.7,10.7-19.57,24.85-26.61,42.46v-52.82h-49.57v221.03h51.6c-1.36-13-2.03-28.71-2.03-47.13v-61.76c0-14.08,2.24-26.61,6.7-37.58,4.47-10.97,10.16-19.3,17.06-24.99,6.91-5.69,13.88-8.53,20.93-8.53,5.14,0,9.61,.75,13.41,2.23,3.79,1.49,7.99,4.41,12.6,8.74l19.91-44.69c-4.61-4.6-9.35-7.92-14.22-9.95Z"/>
      <path class="cls-1" d="M1920,290.51c-1.62-15.98-2.44-33.58-2.44-52.82V0h-49.16V109.7c-7.31-14.08-17.06-25.25-29.25-33.52-12.19-8.26-25.46-12.39-39.82-12.39-18.69,0-35.29,4.88-49.77,14.63-14.49,9.75-25.74,23.43-33.72,41.04-7.99,17.61-11.99,37.79-11.99,60.54s3.92,43.34,11.78,60.95c7.85,17.61,18.96,31.22,33.32,40.83,14.35,9.61,31.01,14.42,49.98,14.42,14.63,0,28.03-4.27,40.22-12.8,12.19-8.53,21.94-19.97,29.25-34.33v41.44h51.6Zm-59.12-68.26c-5.02,10.3-11.78,18.49-20.32,24.58-8.53,6.1-17.95,9.14-28.24,9.14-11.11,0-20.86-3.11-29.26-9.34-8.4-6.23-14.97-15.1-19.71-26.61-4.74-11.51-7.11-24.85-7.11-40.02s2.37-28.1,7.11-39.62c4.74-11.51,11.31-20.45,19.71-26.82,8.39-6.36,18.14-9.55,29.26-9.55,10.02,0,19.3,2.91,27.83,8.74,8.53,5.83,15.37,13.75,20.52,23.77,5.14,10.02,7.72,21.13,7.72,33.32v19.1c0,11.92-2.51,23.03-7.52,33.32Z"/>
      <path class="cls-1" d="M189.52,30.27C118.57-8.4,44.99-10.26,25.16,26.11c-9.57,17.56-4.87,40.81,10.55,64.53,.02,.03,.04,.06,.06,.1,5.46,8.41,12.28,16.87,20.29,25.16,.18,.19,.36,.38,.55,.58,16.07,16.53,36.87,32.32,61.1,45.53,46.22,25.19,93.55,34.77,126.43,28.32,.19-.04,.38-.08,.57-.12-4.5,4.79-12.02,8.41-21.81,10.76-2.19,.54-4.5,1-6.91,1.41-21.38,3.55-50.96,2.01-82.54-5.38-22.64-5.31-43-12.85-59.19-21.35-14.73-7.74-26.01-16.29-32.41-24.7-4.81-6.34-6.85-12.58-5.5-18.34,.93-4,3.44-7.49,7.28-10.44-8.31-8.51-14.67-16.3-20.4-24.89-11.65,7.54-19.48,17.26-22.19,28.84-3.03,12.95,.69,26.66,9.76,39.9,3.65,5.35,8.19,10.63,13.49,15.75,2.66,2.57,5.51,5.09,8.54,7.57,5.35,4.38,11.29,8.61,17.73,12.62,20.73,12.95,46.73,23.76,75.81,30.57,43.75,10.24,85.26,9.31,115.12-.49,1.13-.37,2.23-.75,3.32-1.15-12.31,17.35-55.33,29.66-106.29,28.9-50.54-.76-84.11-16.04-105.07-31.63-5.46-4.06-10.68-8.37-17.37-7.14-12.94,2.39-18.7,17.83-10.32,27.97,22.18,26.83,73.45,46.12,133.44,47.02,80.79,1.21,146.78-31.39,147.41-72.83,.1-6.84-1.59-13.48-4.83-19.82,1.87-3.31,3.27-6.82,4.14-10.53,2.13-9.12,.91-18.62-3.16-28.06,18.1-36.52-23.19-96.33-93.26-134.52Zm61.69,109.17c-.15,2.26-.68,4.36-1.63,6.29-.09,.19-.19,.38-.29,.57-2.5,4.59-7.23,7.7-13.68,9.4-3.73,.99-8.04,1.51-12.83,1.57-22.41,.29-55.34-9.41-88.81-27.65-8.36-4.56-16.26-9.38-23.59-14.34-1.79-1.21-3.54-2.43-5.26-3.66,12.1,.15,25.04,1.18,38.41,3.17,17.17,2.57,32.4,6.39,45.8,11.07,14.22,4.97,24.92,10.01,35.06,16.43,2.06,1.3,4.63,2.68,7.3,2.7,3.3,.02,4.71-1.6,5.39-3.46,1.03-2.79,.51-8.15-3.69-14.88-8.71-13.95-32.45-32.18-83.69-43.75-33.85-7.64-64.34-5.63-79.05-2.08-12.99-15.36-18.38-29.54-13.18-39.08,10.72-19.66,62.34-12.2,115.31,16.68,47.38,25.82,79.78,60.03,78.43,81.02Z"/>
    </g>
  </g>
</svg>